<svg id="Layer_3" data-name="Layer 3" xmlns="http://www.w3.org/2000/svg" viewBox="0 0 344.77 500"><defs><style>.cls-1{fill:#6b00fa;}.cls-2{fill:none;stroke:#00f993;stroke-miterlimit:10;stroke-width:5.53px;}</style></defs><path class="cls-1" d="M192.2,407H422.38V360.61H304.12l68.1-68.11a171,171,0,0,0,50.16-111.37v-8.75A172.2,172.2,0,1,0,128.43,292.5l32.78-32.78a126,126,0,1,1,178.23,0Z" transform="translate(-77.62)"/><path class="cls-2" d="M337.59,406.78" transform="translate(-77.62)"/><path class="cls-2" d="M337.59,453.2" transform="translate(-77.62)"/><path class="cls-1" d="M77.62,390.89V500H422.38V453.64H80.43L306.9,227.18a80,80,0,1,0-113.14,0l32.78-32.78a33.64,33.64,0,1,1,47.58,0Z" transform="translate(-77.62)"/><rect class="cls-1" x="0.43" y="399.2" width="46.36" height="82.87"/></svg>