<svg id="Layer_3" data-name="Layer 3" xmlns="http://www.w3.org/2000/svg" viewBox="0 0 367.78 499"><defs><style>.cls-1,.cls-2{fill:#6b00fa;}.cls-2{stroke:#6b00fa;stroke-miterlimit:10;stroke-width:2px;}</style></defs><line class="cls-1" x1="37.97" y1="191.08" x2="37.97" y2="191.2"/><path class="cls-1" d="M104.08,191.7V369.26L270.41,202.93a28.48,28.48,0,1,0-40.27,0l-27.75,27.75a67.72,67.72,0,1,1,95.77,0L143.69,385.15v37.23H395.92V382.87H201.07L325.71,258.23a106.68,106.68,0,1,0-150.87,0L147.1,286c-26.19-26.19-40.94-59.93-43-94.28" transform="translate(-66.11 -0.5)"/><path class="cls-1" d="M295.81,343.62H395.92V191.7A144.84,144.84,0,0,1,353.46,286Z" transform="translate(-66.11 -0.5)"/><path class="cls-2" d="M250.18,1.5c-101,0-183.07,82-183.07,182.71V498.5H432.89V184.21A182.69,182.69,0,0,0,250.18,1.5Zm145.74,460H104.08V184.21c0-80.49,65.62-145.74,146.1-145.74A145.74,145.74,0,0,1,395.92,184.21Z" transform="translate(-66.11 -0.5)"/></svg>