<svg id="fixed" xmlns="http://www.w3.org/2000/svg" viewBox="0 0 343.83 500"><defs><style>.cls-1{fill:#ff4a4a;}</style></defs><path class="cls-1" d="M283.34,330.47a33.43,33.43,0,0,1-65.85,5.4,10.07,10.07,0,0,0-9.77-7.78H181.17a10,10,0,0,0-9.95,11.34,79.7,79.7,0,0,0,83.11,68.13c38.74-2.07,73.08-36.41,75.14-75.14A79.68,79.68,0,0,0,250,248.5H151.92L290.64,109.78a10,10,0,0,0-7.1-17.14H88.6a10,10,0,0,0-10,10v26.09a10,10,0,0,0,10,10H196.33L81,254.11a10,10,0,0,0-2.94,7.09v23.43a10,10,0,0,0,10,10H250A33.45,33.45,0,0,1,283.34,330.47Z" transform="translate(-78.09)"/><path class="cls-1" d="M345.38,185.13l73.56-73.55a10,10,0,0,0,2.93-7.09V10a10,10,0,0,0-10-10H88.58a10,10,0,0,0-10,10V36.14a10,10,0,0,0,10,10h286.7V90L306,159.21l-30.2,30.21a10,10,0,0,0,4.71,16.68h0a126,126,0,0,1,95.21,123.67c-.88,67.11-55,122.11-122.1,124A125.9,125.9,0,0,1,124.58,337.27a10,10,0,0,0-10-9.18H88.42a10,10,0,0,0-10,10.54C83.88,428.69,159,500.26,250.49,500c93.55-.26,170.22-76.14,171.41-169.69A171.87,171.87,0,0,0,345.38,185.13Z" transform="translate(-78.09)"/></svg>