<svg id="Layer_3" data-name="Layer 3" xmlns="http://www.w3.org/2000/svg" viewBox="0 0 367.99 500"><defs><style>.cls-1{fill:#ff4a4a;}</style></defs><path class="cls-1" d="M425.43,0H74.49A8.53,8.53,0,0,0,66,8.53V316.19A183.82,183.82,0,0,0,249.77,500C351.33,500,434,417.54,434,316.19V8.53A8.52,8.52,0,0,0,425.43,0ZM103.67,259.52a8.55,8.55,0,0,1,2.5-6l98.14-98.14h-91.7a8.54,8.54,0,0,1-8.54-8.55v-22.2a8.54,8.54,0,0,1,8.54-8.55H278.55a8.54,8.54,0,0,1,6,14.59L166.51,248.71H250a67.82,67.82,0,0,1,67.65,71.43c-1.76,33-31,62.2-64,64a67.85,67.85,0,0,1-70.75-58,8.53,8.53,0,0,1,8.48-9.66H214a8.58,8.58,0,0,1,8.32,6.63A28.45,28.45,0,1,0,250,288H112.21a8.54,8.54,0,0,1-8.54-8.55ZM250.42,462.79c-77.87.22-141.82-60.7-146.48-137.36a8.51,8.51,0,0,1,8.52-9h22.28a8.5,8.5,0,0,1,8.5,7.82A107.18,107.18,0,0,0,253.1,423.45C310.21,421.83,356.28,375,357,317.89a107.21,107.21,0,0,0-81-105.27h0a8.5,8.5,0,0,1-4-14.2l25.7-25.71,59-59V76.48h-244A8.53,8.53,0,0,1,104.07,68V45.72a8.53,8.53,0,0,1,8.53-8.54H387.77a8.53,8.53,0,0,1,8.53,8.54v80.41a8.53,8.53,0,0,1-2.5,6l-62.61,62.61a146.27,146.27,0,0,1,65.13,123.58C395.31,398,330.05,462.57,250.42,462.79Z" transform="translate(-65.96)"/></svg>