<svg xmlns="http://www.w3.org/2000/svg" viewBox="0 0 960 540"><defs><style>.cls-1{fill:#160038;}.cls-2,.cls-3{fill:none;stroke-miterlimit:10;stroke-width:41.96px;}.cls-2{stroke:#6b00fa;}.cls-3{stroke:#160038;}</style></defs><g id="BG"><rect class="cls-1" width="960" height="540"/></g><g id="Layer_1" data-name="Layer 1"><path class="cls-2" d="M86.69,577.2c-105-105-162.89-244.7-162.89-393.26S-18.35-104.28,86.7-209.33,331.4-372.22,480-372.22s288.22,57.85,393.26,162.89A560.76,560.76,0,0,1,955.3-105.2a549.45,549.45,0,0,1,54.62,119.69"/><path class="cls-2" d="M960,40H929.67c-22.64-71.16-62-135.82-116-189.8C724.53-238.91,606-288,480-288"/><path class="cls-2" d="M205.8,458.1A385.19,385.19,0,0,1,92.24,183.94,387.72,387.72,0,0,1,754.12-90.22c59,59,96.6,133.57,109,214.47H960"/><path class="cls-2" d="M265.35,398.54a303.5,303.5,0,0,1,0-429.21A303.5,303.5,0,0,1,783.46,183.94q0,12.3-1,24.53H960"/><path class="cls-2" d="M324.9,339a219.3,219.3,0,0,1,0-310.11A219.29,219.29,0,0,1,699.24,183.94a218,218,0,0,1-28.76,108.75H960"/><path class="cls-2" d="M384.46,279.44a135.06,135.06,0,1,1,191,0L478,376.91H960"/><path class="cls-2" d="M443.59,220.31a51.43,51.43,0,1,1,72.74,0L275.51,461.12H960"/><line class="cls-2" x1="979.67" y1="545.34" x2="172.56" y2="545.34"/><path class="cls-2" d="M908.55-16.26C877.3-84.07,830.25-143.39,770-190.3c-99.45-77.46-223.12-111.55-348.22-96S185.15-207.4,107.7-107.95-3.86,115.17,11.7,240.27,90.59,476.92,190,554.37"/><line class="cls-3" x1="188.43" y1="488.78" x2="479.98" y2="197.22"/></g></svg>